<svg width="2303" height="2303" viewBox="0 0 2303 2303" fill="none" xmlns="http://www.w3.org/2000/svg">
<g clip-path="url(#clip0)">
<path d="M1399.87 1231.82L1411.89 1212.05L1474.33 1249.98C1495.3 1262.72 1520.65 1259.31 1530.94 1242.38C1541.23 1225.44 1532.58 1201.36 1511.61 1188.63L1449.17 1150.69L1773.21 617.342L1786.2 625.23C1787.33 626.428 1788.54 627.525 1789.94 628.374L1824.02 649.073L1841.93 659.968C1843.33 660.811 1844.83 661.374 1846.38 661.826L1806.83 726.914C1801.35 735.942 1804.22 747.698 1813.24 753.184L2004.99 869.678C2014.01 875.164 2025.76 872.286 2031.25 863.265L2060.5 815.122C2065.98 806.103 2063.11 794.346 2054.09 788.86L2018.63 767.307C1976.34 741.629 1962.9 686.524 1988.59 644.243L2009.16 610.367C2034.85 568.094 2089.95 554.637 2132.23 580.326L2167.7 601.877C2176.72 607.363 2188.48 604.485 2193.96 595.464L2223.21 547.323C2228.69 538.293 2225.82 526.545 2216.8 521.059L2025.06 404.566C2016.04 399.08 2004.28 401.949 1998.79 410.97L1959.61 475.45L1955.54 472.976L1937.63 462.09L1903.55 441.391L1886.43 430.988L1905.25 400.014L1921.15 409.675C1934.92 418.032 1952.85 413.656 1961.21 399.892C1964.09 395.148 1965.37 389.903 1965.36 384.728C1965.34 374.897 1960.45 365.31 1951.44 359.831L1935.54 350.171L1718.99 218.6L1705.67 210.506C1696.66 205.035 1685.89 205.118 1677.16 209.624C1672.56 212.003 1668.5 215.552 1665.61 220.298C1657.25 234.052 1661.63 251.99 1675.39 260.348L1688.71 268.443L1624.91 373.448L1232.62 1019.13L1186.03 990.812L1172.76 982.751C1151.78 970.002 1126.44 973.411 1116.15 990.354C1105.85 1007.3 1114.51 1031.36 1135.48 1044.11L1148.76 1052.17L1195.34 1080.48L1183.33 1100.25L1182.96 1100.86C955.6 1029.83 700.688 1119.29 571.44 1332.03C419.222 1582.56 498.928 1909.05 749.454 2061.26C999.979 2213.47 1326.47 2133.78 1478.68 1883.25C1608.49 1669.59 1569.52 1400.76 1399.87 1231.82Z" fill="#56BEC5"/>
<path d="M1056.06 1772.71C865.579 1819.49 674.812 1737.6 581.284 1583.75C581.074 1588.09 580.868 1592.45 580.786 1596.83C575.844 1842 771.282 2045.46 1016.45 2050.4C1261.61 2055.34 1465.09 1859.9 1470.02 1614.74C1471.99 1517.42 1442.52 1425.88 1390.02 1350.76C1394.13 1544.03 1258.67 1722.95 1056.06 1772.71" fill="url(#paint0_linear)"/>
<path d="M601.988 1469.4C590.314 1505.81 583.235 1544.16 581.283 1583.75C674.812 1737.6 865.578 1819.49 1056.06 1772.71C1258.67 1722.95 1394.13 1544.03 1390.02 1350.77C1389.15 1349.53 1388.35 1348.27 1387.47 1347.05C1294.78 1417.38 1232.42 1533.43 1103.44 1530.83C928.13 1527.3 976.712 1490.02 818.185 1445.38C772.832 1432.6 718.521 1437.42 664.086 1450.78C643.243 1455.9 622.374 1462.28 601.988 1469.4Z" fill="url(#paint1_linear)"/>
<path d="M601.988 1469.4C590.314 1505.81 583.235 1544.16 581.283 1583.75C674.812 1737.6 865.578 1819.49 1056.06 1772.71C1258.67 1722.95 1394.13 1544.03 1390.02 1350.77C1389.15 1349.53 1388.35 1348.27 1387.47 1347.05C1294.78 1417.38 1232.42 1533.43 1103.44 1530.83C928.13 1527.3 976.712 1490.02 818.185 1445.38C772.832 1432.6 718.521 1437.42 664.086 1450.78C643.243 1455.9 622.374 1462.28 601.988 1469.4Z" fill="url(#paint2_linear)"/>
<path d="M1105.44 1273.65C1075.43 1294.97 1059.86 1333.15 1069.17 1371.06C1081.28 1420.38 1130.89 1450.62 1180.21 1438.96C1180.47 1438.89 1180.72 1438.85 1180.99 1438.79C1230.56 1426.61 1260.89 1376.55 1248.71 1326.97C1236.54 1277.4 1186.47 1247.07 1136.9 1259.25C1125.24 1262.11 1114.66 1267.09 1105.44 1273.65V1273.65ZM1116.3 1411.69C1102.76 1401.25 1092.53 1386.32 1088.13 1368.42C1077.82 1326.41 1103.51 1284 1145.52 1273.68C1145.75 1273.62 1145.97 1273.59 1146.18 1273.54C1120.76 1291.61 1107.57 1323.95 1115.45 1356.08C1119.35 1371.95 1127.84 1385.48 1139.15 1395.61C1144.42 1404.88 1137.5 1410.92 1129.54 1412.88C1124.67 1414.07 1119.41 1413.75 1116.3 1411.69" fill="url(#paint3_linear)"/>
<path d="M894.943 1202.09C875.905 1215.62 866.027 1239.85 871.936 1263.91C879.622 1295.2 911.106 1314.41 942.406 1306.99C942.569 1306.95 942.735 1306.93 942.888 1306.89C974.365 1299.16 993.605 1267.39 985.877 1235.93C978.149 1204.46 946.384 1185.22 914.907 1192.95C907.516 1194.76 900.801 1197.93 894.943 1202.09ZM901.843 1289.69C893.254 1283.06 886.756 1273.59 883.969 1262.24C877.421 1235.57 893.724 1208.66 920.387 1202.11C920.524 1202.07 920.663 1202.05 920.799 1202.02C904.673 1213.48 896.302 1234 901.31 1254.39C903.785 1264.47 909.168 1273.05 916.35 1279.49C919.687 1285.37 915.297 1289.2 910.244 1290.44C907.154 1291.2 903.819 1291 901.843 1289.69" fill="url(#paint4_linear)"/>
<path d="M932.455 1379.45C923.908 1385.51 919.48 1396.37 922.131 1407.17C925.579 1421.21 939.684 1429.82 953.728 1426.5C953.805 1426.48 953.875 1426.47 953.952 1426.45C968.06 1422.99 976.705 1408.74 973.238 1394.62C969.774 1380.51 955.511 1371.89 941.403 1375.35C938.083 1376.17 935.08 1377.58 932.455 1379.45V1379.45ZM935.542 1418.74C931.69 1415.76 928.772 1411.51 927.521 1406.42C924.587 1394.47 931.899 1382.38 943.857 1379.45C943.925 1379.43 943.978 1379.43 944.046 1379.41C936.805 1384.56 933.054 1393.76 935.301 1402.91C936.41 1407.42 938.823 1411.28 942.041 1414.17C943.545 1416.8 941.579 1418.52 939.318 1419.08C937.926 1419.42 936.428 1419.33 935.542 1418.74Z" fill="url(#paint5_linear)"/>
<path d="M1015.11 1642.57C1018.41 1656.04 1025.61 1667.52 1035.21 1676.13C1042.41 1688.8 1022.8 1694.37 1015.82 1689.76C1004.34 1680.89 995.655 1668.23 991.926 1653.05C983.173 1617.41 1004.97 1581.4 1040.61 1572.65C1040.8 1572.61 1040.99 1572.58 1041.17 1572.53C1019.6 1587.86 1008.41 1615.31 1015.11 1642.57ZM1033.3 1560.41C1023.41 1562.84 1014.43 1567.07 1006.6 1572.62C981.136 1590.72 967.932 1623.12 975.834 1655.29C986.111 1697.14 1028.21 1722.81 1070.05 1712.9C1070.28 1712.85 1070.49 1712.81 1070.71 1712.76C1112.78 1702.43 1138.51 1659.95 1128.18 1617.88C1117.85 1575.8 1075.37 1550.08 1033.3 1560.41" fill="#56BEC5"/>
<path d="M875.32 1706.38C877.196 1714.02 881.275 1720.53 886.726 1725.41C890.806 1732.59 879.681 1735.74 875.72 1733.14C869.208 1728.11 864.289 1720.94 862.172 1712.32C857.208 1692.11 869.569 1671.69 889.789 1666.72C889.899 1666.69 890.004 1666.68 890.106 1666.65C877.871 1675.35 871.523 1690.92 875.32 1706.38ZM885.64 1659.78C880.032 1661.15 874.938 1663.55 870.49 1666.7C856.052 1676.97 848.564 1695.34 853.043 1713.58C858.874 1737.32 882.747 1751.88 906.482 1746.27C906.61 1746.24 906.74 1746.21 906.859 1746.18C930.723 1740.32 945.312 1716.22 939.451 1692.36C933.593 1668.51 909.503 1653.92 885.64 1659.78" fill="#56BEC5"/>
</g>
<defs>
<linearGradient id="paint0_linear" x1="1491.28" y1="1637.62" x2="627.345" y2="1849.78" gradientUnits="userSpaceOnUse">
<stop stop-color="#01A0C6"/>
<stop offset="0.401188" stop-color="#1A509D"/>
<stop offset="1" stop-color="#13007C"/>
</linearGradient>
<linearGradient id="paint1_linear" x1="585.451" y1="1679.19" x2="1449.41" y2="1467.02" gradientUnits="userSpaceOnUse">
<stop stop-color="#509FC4"/>
<stop offset="1" stop-color="#3F56A5"/>
</linearGradient>
<linearGradient id="paint2_linear" x1="585.451" y1="1679.19" x2="1429.81" y2="1471.84" gradientUnits="userSpaceOnUse">
<stop stop-color="#01A0C6"/>
<stop offset="0.401188" stop-color="#1A509D"/>
<stop offset="1" stop-color="#13007C"/>
</linearGradient>
<linearGradient id="paint3_linear" x1="1069.17" y1="1371.06" x2="1248.71" y2="1326.97" gradientUnits="userSpaceOnUse">
<stop stop-color="#01A0C6"/>
<stop offset="0.401188" stop-color="#1A509D"/>
<stop offset="1" stop-color="#13007C"/>
</linearGradient>
<linearGradient id="paint4_linear" x1="871.936" y1="1263.91" x2="985.876" y2="1235.93" gradientUnits="userSpaceOnUse">
<stop stop-color="#01A0C6"/>
<stop offset="0.401188" stop-color="#1A509D"/>
<stop offset="1" stop-color="#13007C"/>
</linearGradient>
<linearGradient id="paint5_linear" x1="922.129" y1="1407.17" x2="973.229" y2="1394.62" gradientUnits="userSpaceOnUse">
<stop stop-color="#01A0C6"/>
<stop offset="0.401188" stop-color="#1A509D"/>
<stop offset="1" stop-color="#13007C"/>
</linearGradient>
<clipPath id="clip0">
<rect width="2303" height="2303" fill="white"/>
</clipPath>
</defs>
</svg>
